<svg width="240" height="287" viewBox="0 0 240 287" fill="none" xmlns="http://www.w3.org/2000/svg">
<g filter="url(#filter0_di_58_34498)">
<path fill-rule="evenodd" clip-rule="evenodd" d="M11.2491 62.0258C36.166 30.1141 76.1578 9.37989 121.308 9.37989C164.443 9.37989 202.87 28.3038 227.942 57.8204C229.333 59.458 231.788 59.658 233.425 58.2669C235.063 56.8759 235.263 54.4207 233.872 52.7831C207.332 21.5385 166.743 1.59891 121.308 1.59891C73.7514 1.59891 31.5012 23.4452 5.11621 57.2372C3.60026 59.1787 2.82124 61.5401 2.82124 63.9508V224.506C2.54741 225.605 2.75315 226.813 3.48686 227.788C29.7528 262.702 72.7159 285.401 121.192 285.401C166.627 285.401 207.216 265.461 233.756 234.217L233.842 234.116L233.921 234.009L236.648 230.315C238.367 227.987 239.295 225.168 239.295 222.273V151.534C239.295 149.386 237.553 147.644 235.405 147.644C233.256 147.644 231.514 149.386 231.514 151.534V222.273C231.514 223.504 231.12 224.703 230.388 225.694L227.74 229.28C202.667 258.739 164.278 277.62 121.192 277.62C75.7192 277.62 35.4795 256.589 10.6022 224.29V63.9508C10.6022 63.2225 10.8333 62.5584 11.2491 62.0258Z" fill="white"/>
</g>
<defs>
<filter id="filter0_di_58_34498" x="0.498945" y="0.392774" width="239.002" height="286.214" filterUnits="userSpaceOnUse" color-interpolation-filters="sRGB">
<feFlood flood-opacity="0" result="BackgroundImageFix"/>
<feColorMatrix in="SourceAlpha" type="matrix" values="0 0 0 0 0 0 0 0 0 0 0 0 0 0 0 0 0 0 127 0" result="hardAlpha"/>
<feOffset dx="-1"/>
<feGaussianBlur stdDeviation="0.603067"/>
<feComposite in2="hardAlpha" operator="out"/>
<feColorMatrix type="matrix" values="0 0 0 0 0 0 0 0 0 0 0 0 0 0 0 0 0 0 0.08 0"/>
<feBlend mode="normal" in2="BackgroundImageFix" result="effect1_dropShadow_58_34498"/>
<feBlend mode="normal" in="SourceGraphic" in2="effect1_dropShadow_58_34498" result="shape"/>
<feColorMatrix in="SourceAlpha" type="matrix" values="0 0 0 0 0 0 0 0 0 0 0 0 0 0 0 0 0 0 127 0" result="hardAlpha"/>
<feOffset/>
<feGaussianBlur stdDeviation="0.603067"/>
<feComposite in2="hardAlpha" operator="arithmetic" k2="-1" k3="1"/>
<feColorMatrix type="matrix" values="0 0 0 0 0 0 0 0 0 0 0 0 0 0 0 0 0 0 0.1 0"/>
<feBlend mode="normal" in2="shape" result="effect2_innerShadow_58_34498"/>
</filter>
</defs>
</svg>
